<?xml version="1.0" encoding="UTF-8" standalone="no"?>
<!DOCTYPE svg PUBLIC "-//W3C//DTD SVG 1.1//EN" "http://www.w3.org/Graphics/SVG/1.1/DTD/svg11.dtd">
<svg width="100%" height="100%" viewBox="0 0 375 294" version="1.1" xmlns="http://www.w3.org/2000/svg" xmlns:xlink="http://www.w3.org/1999/xlink" xml:space="preserve" xmlns:serif="http://www.serif.com/" style="fill-rule:evenodd;clip-rule:evenodd;stroke-linejoin:round;stroke-miterlimit:2;">
    <g transform="matrix(1,0,0,1,-252.14037,-463.895406)">
        <g id="Background" transform="matrix(1.140625,0,0,1.140625,-9,-6)">
            <path d="M455.107,607.456C454.965,605.344 456.94,599.232 440.405,593.825C438.72,593.274 422.161,586.356 392.497,585.587C334.395,584.082 302.949,589.827 331.918,640.258C345.119,663.239 355.692,671.369 349.577,669.105C295.984,649.261 185.576,574.759 247.058,486.201C251.812,479.354 266.604,458.047 325.754,417.907C331.363,414.101 328.189,423.835 349.979,453.142C377.535,490.204 409.153,487.986 430.188,469.133C454.886,446.996 466.113,413.36 467.184,412.177C469.477,409.645 484.941,429.766 517.729,463.27C531.457,477.297 596.084,524.982 524.062,599.081C493.365,630.664 432.358,657.425 430.663,655.368C429.339,653.76 450.256,626.258 455.107,607.456ZM396.553,497.132C395.434,497.013 387.233,496.14 382.493,497.469C338.145,509.905 350.31,566.053 388.491,567.664C433.335,569.557 440.996,506.049 396.553,497.132Z"/>
        </g>
    </g>
</svg>

